<?xml version="1.0" standalone="no"?>
<!DOCTYPE svg PUBLIC "-//W3C//DTD SVG 20010904//EN"
 "http://www.w3.org/TR/2001/REC-SVG-20010904/DTD/svg10.dtd">
<svg version="1.0" xmlns="http://www.w3.org/2000/svg"
 width="1080.000000pt" height="1080.000000pt" viewBox="0 0 1080.000000 1080.000000"
 preserveAspectRatio="xMidYMid meet">
<metadata>
Created by potrace 1.14, written by Peter Selinger 2001-2017
</metadata>
<g transform="translate(0.000000,1080.000000) scale(0.100000,-0.100000)"
fill="#000000" stroke="none">
<path d="M0 5400 l0 -5400 5400 0 5400 0 -1 1768 c0 1270 -4 1761 -11 1745
-15 -31 -22 -29 -36 11 -16 45 -41 54 -64 24 l-18 -23 0 35 c0 25 -6 39 -21
49 -21 12 -22 12 -16 -17 6 -29 5 -30 -33 -34 -37 -3 -38 -3 -22 15 13 15 14
20 3 26 -10 6 -2 17 28 41 22 18 38 37 35 41 -3 5 0 9 5 9 6 0 11 5 11 10 0
16 -30 12 -36 -5 -4 -8 -14 -15 -24 -15 -10 0 -21 -8 -25 -17 -6 -14 -10 -10
-21 20 -13 37 -12 38 21 72 38 37 44 59 19 69 -8 3 -13 10 -9 15 3 5 0 13 -6
17 -6 3 -15 1 -19 -6 -5 -9 -9 -8 -13 3 -3 9 -20 17 -38 19 l-31 3 26 29 c24
25 29 26 39 13 11 -14 13 -14 26 -1 11 13 10 16 -8 21 -15 4 -21 13 -21 32 0
30 -16 51 -40 51 -18 0 -43 36 -35 50 3 5 12 7 20 4 21 -8 49 23 39 44 -7 17
-10 27 -12 50 -2 14 -32 17 -32 2 0 -14 -54 -12 -68 2 -9 9 -15 9 -24 0 -7 -7
-29 -12 -50 -12 -21 0 -38 -4 -38 -8 0 -5 -13 -9 -30 -9 -16 0 -30 5 -30 10 0
6 -9 2 -20 -8 -20 -18 -21 -18 -27 3 -3 12 -12 22 -19 22 -23 0 -16 20 11 32
28 12 33 28 10 28 -18 0 -20 41 -3 58 21 21 38 13 38 -18 0 -16 4 -30 8 -30 5
0 7 13 4 28 -2 18 2 33 12 41 13 11 17 9 25 -12 7 -17 17 -25 33 -25 13 1 37
-3 55 -7 29 -7 32 -5 35 21 2 25 8 29 36 32 37 4 41 16 12 34 -28 18 -25 31 5
24 18 -5 25 -2 25 8 0 8 -6 16 -12 19 -10 3 -10 9 0 26 6 11 12 27 12 35 0 8
6 17 13 19 10 4 10 6 0 6 -21 2 -15 18 10 26 l22 7 -25 8 c-41 13 -50 11 -50
-10 0 -11 -4 -20 -9 -20 -17 0 -45 55 -42 83 2 19 -5 33 -20 46 l-23 18 37 7
c23 4 38 14 42 26 7 22 25 26 42 9 8 -8 15 -6 25 10 7 11 18 21 25 21 7 0 13
9 13 20 0 11 5 20 11 20 7 0 9 10 7 25 -4 18 0 26 13 30 13 4 19 16 19 37 0
25 -3 29 -20 25 -24 -6 -26 5 -5 23 12 10 18 10 30 0 20 -17 29 -6 30 33 0 18
5 33 13 33 6 1 19 2 27 3 8 0 15 10 15 20 0 11 9 21 24 25 13 3 26 15 29 26 3
14 13 20 32 20 15 0 24 -4 20 -10 -3 -5 -1 -10 4 -10 8 0 11 593 11 1980 l0
1980 -29 0 c-16 0 -37 -7 -45 -16 -19 -18 -21 -2 -4 29 7 12 11 32 9 44 -1 11
2 24 8 27 12 8 33 -28 23 -40 -3 -5 4 1 17 13 20 17 22 25 13 36 -7 8 -10 21
-7 29 8 20 -12 69 -35 85 -11 8 -20 20 -20 28 0 12 -5 12 -35 -1 -41 -17 -77
-18 -92 -3 -8 8 -14 5 -22 -10 -7 -12 -8 -21 -4 -21 4 0 2 -5 -4 -11 -8 -8
-16 -8 -30 0 -17 10 -17 10 0 11 9 0 17 4 17 10 0 5 -15 3 -32 -5 -22 -9 -33
-20 -33 -34 -1 -40 -21 -47 -64 -23 -45 26 -76 28 -85 7 -4 -10 1 -15 15 -15
14 0 19 -5 17 -17 -2 -13 -13 -18 -36 -18 -19 -1 -36 3 -38 7 -13 21 -64 -5
-64 -31 0 -15 -27 -14 -33 2 -3 9 -13 8 -41 -5 -20 -10 -48 -18 -62 -18 -28 0
-95 -26 -104 -40 -3 -5 -26 -11 -50 -12 -25 -2 -51 -9 -58 -16 -8 -7 -26 -12
-40 -12 -74 1 -153 -11 -175 -24 -13 -9 -27 -13 -30 -9 -9 8 22 43 39 43 7 0
28 8 46 18 18 10 56 26 83 36 28 11 55 22 60 27 12 9 133 51 154 54 20 2 44
11 97 36 23 10 47 19 54 19 7 0 33 11 57 25 23 14 43 23 43 19 0 -4 11 3 24
15 14 13 29 20 34 17 14 -8 94 29 117 54 10 12 34 28 52 37 18 8 33 19 33 24
0 5 6 9 14 9 27 0 86 65 86 94 0 24 2 27 15 16 23 -19 65 5 65 37 0 22 3 23
40 17 l40 -7 0 35 c0 34 -1 35 -40 35 -30 0 -40 -4 -40 -16 -1 -14 -2 -14 -14
2 -8 10 -31 21 -52 24 -22 3 -49 13 -62 21 -18 11 -25 12 -37 2 -8 -7 -15 -18
-15 -25 0 -7 -7 -16 -16 -19 -23 -9 -31 -7 -15 3 9 6 11 16 6 27 -7 18 -8 18
-17 -2 -7 -15 -22 -23 -52 -27 -22 -3 -42 -2 -44 3 -2 5 -19 2 -38 -8 -31 -14
-36 -14 -45 -2 -8 11 -9 8 -5 -12 5 -24 3 -28 -14 -28 -11 0 -23 -7 -26 -15
-8 -20 -40 -19 -48 0 -4 11 -13 14 -30 9 -13 -3 -34 0 -47 6 -17 10 -30 9 -61
-1 -28 -9 -45 -10 -56 -2 -27 16 -214 8 -253 -11 -34 -17 -53 -21 -30 -7 18
12 7 41 -15 41 -10 0 -26 -7 -36 -17 -17 -15 -18 -14 -18 25 0 48 -10 53 -37
16 -18 -25 -20 -25 -37 -9 -16 17 -18 17 -32 -4 -18 -25 -40 -27 -52 -5 -8 14
-13 14 -50 -1 -29 -12 -55 -15 -84 -10 -48 7 -139 7 -146 0 -3 -3 3 -14 14
-26 18 -20 18 -21 0 -35 -18 -12 -21 -11 -38 14 -10 15 -18 32 -18 39 0 22
-21 26 -35 6 -10 -14 -23 -18 -59 -15 -39 3 -45 6 -35 18 7 8 20 12 29 9 9 -3
23 1 30 10 7 8 24 15 39 15 24 0 27 4 29 35 2 19 -2 36 -8 36 -56 7 -70 3 -70
-19 0 -12 5 -21 11 -20 6 2 14 -3 16 -10 3 -8 -1 -10 -12 -6 -9 4 -21 18 -26
32 -9 25 -10 25 -97 17 -88 -8 -123 -12 -132 -15 -3 -1 -15 -1 -28 0 -13 1
-32 -6 -42 -15 -21 -19 -90 -32 -90 -17 0 6 -8 13 -17 16 -10 2 0 2 21 -1 28
-4 37 -2 32 6 -4 6 -14 11 -22 11 -8 0 -14 5 -14 10 0 6 12 10 28 10 15 1 38
7 52 15 14 8 35 14 48 15 12 0 22 5 22 10 0 6 3 9 8 8 4 0 15 2 25 5 9 4 24 9
33 12 8 3 12 9 9 15 -4 6 9 10 32 11 38 1 38 1 11 12 -41 16 -34 30 12 22 27
-5 40 -3 40 5 0 8 -30 10 -100 7 -55 -2 -103 0 -106 4 -7 13 -48 11 -61 -2 -7
-7 -17 -8 -29 -1 -22 11 -175 8 -261 -6 -32 -6 -84 -9 -115 -8 -41 2 -58 -2
-58 -11 0 -9 -24 -11 -102 -8 -118 5 -149 20 -62 30 33 4 67 8 76 9 10 1 21 5
24 9 4 4 31 7 61 7 29 0 53 4 53 10 0 5 7 7 16 3 12 -4 15 -2 12 8 -2 8 -19
18 -36 24 -18 5 -32 12 -32 16 0 8 109 4 117 -5 4 -3 25 -6 48 -6 22 0 45 -4
51 -9 5 -5 23 -7 40 -4 29 4 30 7 20 28 -6 14 -27 28 -51 36 -56 18 -87 43
-72 58 8 8 3 11 -21 11 -18 0 -32 -4 -32 -10 0 -5 -5 -10 -11 -10 -6 0 -8 7
-5 15 3 10 -1 18 -12 21 -56 19 -72 28 -72 45 0 17 -36 37 -47 25 -4 -3 1 -6
10 -6 9 0 17 -7 17 -15 0 -26 -29 -29 -54 -6 -26 25 -36 26 -36 6 0 -8 -5 -15
-11 -15 -6 0 -9 9 -6 20 4 15 0 20 -14 20 -10 0 -19 -4 -19 -10 0 -5 -7 -10
-16 -10 -15 0 -15 2 0 25 21 33 20 42 -6 49 -17 4 -20 8 -10 15 9 5 3 8 -17 7
-26 -1 -31 -5 -31 -25 0 -18 -4 -22 -17 -16 -10 4 -45 9 -78 12 -33 3 -63 10
-67 16 -4 7 -11 7 -22 -2 -9 -7 -21 -9 -28 -5 -7 5 -33 10 -58 12 -24 1 -47 7
-50 12 -3 5 -11 5 -20 0 -26 -16 -40 -11 -40 15 0 29 -7 31 -38 9 -12 -8 -27
-12 -32 -9 -14 9 -12 32 3 38 6 2 10 7 7 10 -3 4 -19 -5 -34 -18 -16 -14 -38
-25 -48 -25 -10 0 -21 -7 -25 -16 -5 -13 -7 -13 -14 -2 -7 11 -12 11 -30 0
-18 -12 -24 -11 -37 2 -14 14 -14 16 1 22 9 3 30 1 47 -4 30 -11 35 -7 25 20
-4 10 -19 12 -53 9 -26 -2 -66 -5 -89 -5 -23 0 -37 -4 -30 -8 7 -4 -19 -8 -58
-9 -93 -2 -135 -7 -149 -19 -7 -5 -22 -7 -34 -3 -12 3 -29 0 -37 -7 -8 -6 -19
-9 -25 -5 -6 4 -16 2 -23 -3 -7 -5 -41 -17 -77 -25 -130 -32 -236 -64 -277
-86 -24 -12 -43 -19 -43 -15 0 4 -6 2 -13 -4 -14 -12 -356 -131 -399 -139 -16
-3 -28 -9 -28 -13 0 -4 -18 -10 -41 -14 -23 -4 -53 -13 -68 -20 -14 -8 -62
-16 -105 -19 -59 -3 -83 -9 -92 -22 -9 -12 -32 -18 -76 -22 -58 -4 -62 -3 -44
11 11 9 30 16 43 16 15 0 21 5 17 14 -8 20 -75 26 -99 9 -11 -7 -28 -13 -38
-13 -10 0 -17 -5 -15 -12 5 -15 -15 -38 -32 -38 -6 0 -8 5 -4 11 4 7 1 10 -7
7 -8 -3 -13 -11 -11 -18 2 -7 -3 -10 -12 -7 -8 3 -20 -1 -26 -9 -7 -8 -25 -14
-40 -14 -22 0 -31 -7 -41 -29 -9 -20 -16 -26 -21 -18 -5 9 -10 9 -20 -1 -6 -6
-24 -12 -38 -12 -14 0 -30 -4 -35 -8 -6 -5 -30 -16 -55 -25 -49 -18 -144 -75
-172 -103 -9 -9 -24 -14 -33 -10 -18 6 -104 -34 -124 -58 -8 -9 -20 -16 -27
-16 -8 0 -14 -4 -14 -10 0 -5 -11 -10 -25 -10 -14 0 -28 -6 -31 -13 -2 -7 -27
-22 -55 -32 -28 -11 -61 -29 -73 -41 -11 -12 -42 -32 -68 -46 -26 -14 -44 -29
-40 -33 4 -4 -2 -6 -14 -3 -20 5 -59 -15 -59 -30 0 -4 -9 -19 -19 -34 -26 -40
-76 -39 -116 2 -16 17 -36 30 -45 30 -8 0 -15 4 -15 8 0 5 -9 18 -20 29 -25
27 -77 25 -72 -2 8 -40 23 -66 44 -75 17 -7 11 -8 -21 -3 -32 4 -42 3 -37 -5
4 -7 18 -12 32 -12 16 0 23 -4 18 -11 -4 -7 4 -20 17 -30 l24 -19 -23 0 c-13
0 -40 17 -64 40 -41 39 -71 50 -83 30 -3 -5 -17 -10 -31 -10 -17 0 -24 -5 -24
-20 0 -22 -34 -40 -76 -40 -21 0 -24 -4 -24 -40 0 -39 12 -53 24 -27 5 10 7
10 12 0 3 -7 14 -13 24 -13 10 0 21 6 24 13 5 10 7 10 12 0 8 -18 34 -16 34 2
0 8 5 15 10 15 6 0 10 -7 10 -15 0 -23 52 -23 110 1 25 11 31 17 21 23 -9 6
-10 11 -2 15 6 4 15 5 20 2 13 -8 -2 -58 -20 -67 -40 -21 -150 -69 -160 -69
-5 0 -8 -3 -5 -8 11 -19 -23 -41 -70 -45 -27 -2 -58 -10 -70 -17 -18 -11 -26
-9 -63 16 -24 15 -38 30 -33 32 7 2 9 15 6 31 -5 24 -2 29 20 35 26 6 51 40
42 55 -3 5 -22 12 -42 15 -28 6 -43 2 -70 -16 -40 -27 -45 -43 -26 -81 7 -16
12 -30 10 -32 -7 -8 -114 -18 -164 -16 -35 1 -55 -3 -64 -14 -7 -8 -21 -15
-31 -15 -11 0 -19 -4 -19 -10 0 -5 -16 -10 -36 -10 -20 0 -49 -9 -65 -21 -19
-13 -54 -23 -100 -28 l-71 -7 6 39 c11 65 -24 82 -67 34 -14 -17 -21 -18 -40
-10 -16 7 -29 8 -41 1 -10 -5 -29 -7 -44 -4 -19 5 -23 4 -13 -3 25 -16 -5 -39
-67 -51 -31 -6 -65 -15 -76 -21 -14 -8 -21 -7 -28 3 -7 10 -10 10 -19 -5 -12
-21 -60 -46 -76 -40 -7 3 -13 -3 -13 -11 0 -13 -8 -15 -42 -10 -55 7 -109 24
-126 37 -7 6 -42 11 -77 12 -59 1 -63 0 -51 -17 12 -17 55 -52 112 -93 16 -11
40 -31 54 -45 14 -13 30 -25 37 -26 6 -1 27 -13 45 -26 18 -13 46 -30 61 -38
30 -15 77 -90 56 -90 -23 0 -109 45 -109 57 0 7 -6 13 -14 13 -8 0 -22 10 -30
22 -9 12 -16 19 -16 15 0 -4 -19 6 -42 23 -22 16 -47 30 -55 30 -7 0 -13 5
-13 10 0 6 -8 18 -18 28 -10 10 -25 27 -33 38 -14 20 -133 114 -143 114 -3 0
-34 23 -68 50 -106 86 -316 200 -366 200 -16 0 -19 -5 -14 -22 6 -27 87 -155
114 -181 10 -10 18 -22 18 -28 0 -6 17 -31 38 -57 51 -63 159 -200 202 -258
19 -26 48 -62 64 -80 27 -32 27 -34 7 -34 -12 0 -21 3 -21 8 0 4 -20 20 -45
35 -25 16 -45 32 -45 36 0 4 -32 41 -70 81 -45 47 -66 76 -59 81 8 4 5 9 -8
13 -11 4 -25 18 -31 31 -6 14 -19 25 -27 25 -9 0 -14 4 -10 10 3 5 -7 16 -22
24 -29 15 -108 95 -108 109 0 4 -5 11 -10 15 -18 13 -35 51 -26 57 14 8 -4 59
-35 102 -16 21 -29 40 -31 42 -2 2 -6 1 -9 -2 -4 -4 -1 -13 6 -22 7 -8 9 -15
4 -15 -15 0 -62 66 -88 122 -51 112 -64 145 -81 198 -16 53 -64 160 -76 170
-3 3 -11 20 -18 38 -8 17 -18 32 -23 32 -5 0 -6 5 -3 10 3 6 2 10 -3 10 -11 0
-130 219 -151 280 -33 94 -137 220 -181 220 -5 0 -21 23 -36 52 -18 35 -28 47
-34 38 -10 -17 -30 -4 -30 21 0 10 -4 19 -10 19 -5 0 -10 9 -10 19 0 13 -15
28 -42 43 -26 14 -44 32 -48 47 -3 13 -19 31 -36 40 -17 9 -29 22 -27 28 2 6
-5 14 -16 18 -12 3 -21 13 -21 22 0 9 6 13 15 10 8 -4 17 -2 20 3 4 6 -3 10
-14 10 -11 0 -22 4 -25 9 -4 5 3 7 14 4 36 -9 21 16 -55 94 -41 43 -75 83 -75
89 0 7 -7 14 -15 18 -8 3 -15 12 -15 20 0 19 26 67 42 77 7 5 -182 9 -419 9
l-433 0 0 -5400z m7380 4769 c0 -5 -4 -9 -10 -9 -5 0 -10 7 -10 16 0 8 5 12
10 9 6 -3 10 -10 10 -16z m205 -199 c3 -5 -3 -10 -15 -10 -12 0 -18 5 -15 10
3 6 10 10 15 10 5 0 12 -4 15 -10z m95 0 c0 -5 -11 -10 -25 -10 -14 0 -25 5
-25 10 0 6 11 10 25 10 14 0 25 -4 25 -10z m62 1 c-8 -4 -12 -12 -10 -17 1 -5
-9 -10 -24 -12 -16 -2 -28 1 -28 7 0 6 7 11 16 11 8 0 12 5 9 10 -4 6 6 10 22
10 19 0 24 -3 15 -9z m-234 -24 c5 -26 -24 -31 -46 -9 -24 24 -18 34 18 30 14
-2 26 -10 28 -21z m554 -2 c23 -11 26 -11 21 3 -5 12 -1 14 18 9 13 -4 32 -7
42 -7 9 0 17 -4 17 -9 0 -5 -8 -12 -17 -14 -13 -3 -12 -5 5 -6 13 0 32 3 42 9
12 6 37 6 74 -2 54 -10 56 -12 40 -29 -18 -20 -49 -25 -58 -10 -3 4 -53 14
-110 21 -58 8 -103 17 -100 22 8 13 -21 9 -35 -4 -10 -11 -12 -10 -9 2 2 11
-7 16 -34 18 -36 3 -53 -11 -25 -21 6 -2 3 -2 -8 0 -11 2 -31 5 -44 6 -13 1
-26 8 -28 14 -3 9 4 11 24 7 15 -3 39 -1 53 5 29 12 93 5 132 -14z m-725 -1
c-3 -3 -12 -4 -19 -1 -8 3 -5 6 6 6 11 1 17 -2 13 -5z m234 -11 c12 -15 12
-16 -4 -10 -10 4 -23 7 -28 7 -6 0 -7 5 -4 10 9 15 21 12 36 -7z m86 3 c-18
-14 -53 -11 -63 5 -3 5 14 9 38 9 38 -1 41 -2 25 -14z m-204 -13 c3 -5 -1 -14
-9 -21 -12 -11 -14 -9 -14 8 0 20 14 27 23 13z m1424 -155 c-3 -8 -6 -5 -6 6
-1 11 2 17 5 13 3 -3 4 -12 1 -19z m-857 4 c0 -4 -17 -8 -39 -9 -21 -1 -65 -8
-97 -16 -93 -23 -124 -27 -124 -17 0 6 8 10 18 10 10 0 22 4 28 10 22 22 214
42 214 22z m-1465 -102 c-3 -5 -11 -10 -16 -10 -6 0 -7 5 -4 10 3 6 11 10 16
10 6 0 7 -4 4 -10z m1005 -40 c0 -5 -10 -10 -22 -10 -19 0 -20 2 -8 10 19 13
30 13 30 0z m1088 -28 c9 -6 0 -15 -30 -30 -49 -24 -75 -29 -100 -17 -27 11
-21 25 10 25 15 0 32 4 38 9 5 5 20 11 34 14 14 2 27 5 30 5 3 1 11 -2 18 -6z
m1730 -59 c-2 -10 -10 -18 -18 -18 -8 0 -16 8 -18 18 -2 12 3 17 18 17 15 0
20 -5 18 -17z m-938 -12 c0 -13 -64 -23 -91 -13 -28 10 -40 9 -56 -1 -9 -5
-13 -3 -13 7 0 13 14 16 80 16 44 0 80 -4 80 -9z m1170 -1 c0 -5 -4 -10 -10
-10 -5 0 -10 5 -10 10 0 6 5 10 10 10 6 0 10 -4 10 -10z m-2093 -6 c-3 -3 -12
-4 -19 -1 -8 3 -5 6 6 6 11 1 17 -2 13 -5z m1040 0 c-3 -3 -12 -4 -19 -1 -8 3
-5 6 6 6 11 1 17 -2 13 -5z m1140 0 c-3 -3 -12 -4 -19 -1 -8 3 -5 6 6 6 11 1
17 -2 13 -5z m-2222 -24 c-3 -5 -23 -10 -43 -10 -28 0 -33 3 -22 10 20 13 73
13 65 0z m1725 0 c0 -5 -7 -10 -16 -10 -8 0 -12 5 -9 10 3 6 10 10 16 10 5 0
9 -4 9 -10z m-680 -10 c0 -5 -5 -10 -11 -10 -5 0 -7 5 -4 10 3 6 8 10 11 10 2
0 4 -4 4 -10z m967 -12 c-3 -8 -6 -5 -6 6 -1 11 2 17 5 13 3 -3 4 -12 1 -19z
m247 -305 c19 -56 19 -53 1 -53 -10 0 -15 10 -15 34 0 19 -4 38 -10 41 -12 8
-13 25 -1 25 5 0 16 -21 25 -47z m-61 20 c-7 -2 -19 -2 -25 0 -7 3 -2 5 12 5
14 0 19 -2 13 -5z m37 -27 c0 -16 -18 -31 -27 -22 -8 8 5 36 17 36 5 0 10 -6
10 -14z m-6310 -6 c0 -5 -5 -10 -11 -10 -5 0 -7 5 -4 10 3 6 8 10 11 10 2 0 4
-4 4 -10z m6255 -9 c3 -5 1 -12 -5 -16 -5 -3 -10 1 -10 9 0 18 6 21 15 7z
m-27 -99 c-1 -4 2 -22 6 -40 9 -37 26 -34 26 6 l1 27 14 -25 c12 -22 11 -27
-5 -42 -11 -10 -24 -18 -29 -18 -6 0 -14 -6 -18 -12 -8 -12 -47 -38 -58 -38
-3 0 -5 5 -5 11 0 7 -8 18 -17 26 -17 13 -16 14 5 10 30 -7 28 1 -4 13 -32 12
-29 45 4 44 12 0 22 5 22 13 0 7 7 13 15 13 8 0 15 7 15 15 0 8 6 12 15 9 8
-3 14 -9 13 -12z m92 -12 c0 -11 -2 -20 -3 -20 -2 0 -12 9 -22 20 -18 19 -17
20 3 20 15 0 22 -6 22 -20z m-228 -111 c6 -4 7 -13 3 -20 -10 -15 -24 13 -23
46 l0 20 5 -20 c3 -11 10 -23 15 -26z m268 -39 c0 -5 -4 -10 -10 -10 -5 0 -10
5 -10 10 0 6 5 10 10 10 6 0 10 -4 10 -10z m8 -47 c2 -8 -5 -13 -17 -13 -21 0
-35 13 -24 24 10 10 36 3 41 -11z m-313 -3 c3 -5 -1 -10 -10 -10 -9 0 -13 5
-10 10 3 6 8 10 10 10 2 0 7 -4 10 -10z m-2 -37 c-7 -2 -19 -2 -25 0 -7 3 -2
5 12 5 14 0 19 -2 13 -5z m-7319 -128 c7 -20 43 -33 113 -40 69 -8 123 -32
102 -46 -8 -5 -25 -7 -39 -4 -14 3 -32 0 -40 -5 -13 -9 -13 -11 0 -20 11 -7 4
-10 -27 -10 -25 0 -43 -5 -43 -11 0 -18 -87 39 -135 89 -50 52 -46 62 21 62
28 0 44 -5 48 -15z m-975 -74 c38 -30 40 -45 4 -36 -34 8 -101 67 -95 84 4 13
30 -1 91 -48z m1610 3 c-15 -18 -22 -13 -13 10 3 9 10 13 16 10 5 -3 4 -12 -3
-20z m45 -49 c3 -8 1 -15 -3 -15 -5 0 -11 7 -15 15 -3 8 -1 15 3 15 5 0 11 -7
15 -15z m2384 -470 c-3 -35 -15 -31 -16 5 0 17 3 28 9 25 5 -3 8 -17 7 -30z
m149 -42 c-3 -10 -5 -4 -5 12 0 17 2 24 5 18 2 -7 2 -21 0 -30z m-360 -70 c-3
-10 -5 -4 -5 12 0 17 2 24 5 18 2 -7 2 -21 0 -30z m53 22 c0 -12 -19 -12 -23
0 -4 9 -1 12 9 8 7 -3 14 -7 14 -8z m230 0 c0 -8 -2 -15 -4 -15 -2 0 -6 7 -10
15 -3 8 -1 15 4 15 6 0 10 -7 10 -15z m-400 -35 c0 -5 -4 -10 -10 -10 -5 0
-10 5 -10 10 0 6 5 10 10 10 6 0 10 -4 10 -10z m437 -32 c-3 -7 -5 -2 -5 12 0
14 2 19 5 13 2 -7 2 -19 0 -25z m-43 -2815 c8 -19 0 -28 -32 -38 -27 -8 -41
17 -22 40 17 20 46 19 54 -2z m301 -20 c3 -15 20 -45 36 -67 16 -22 29 -51 29
-64 0 -13 5 -33 11 -44 8 -14 8 -23 0 -31 -6 -6 -11 -21 -11 -34 0 -62 -64
-161 -129 -202 -63 -38 -91 -47 -102 -30 -5 9 5 21 34 38 46 27 87 68 87 85 0
6 -4 4 -10 -4 -5 -8 -13 -11 -17 -6 -4 4 1 14 11 22 11 7 17 16 14 20 -4 3 3
27 15 52 21 47 27 154 16 255 -5 43 6 50 16 10z m137 -140 c6 -47 -12 -125
-32 -140 -8 -6 -16 -11 -17 -10 -1 1 5 29 13 62 7 33 14 75 14 93 0 44 17 41
22 -5z m3878 14 c-8 -7 -21 -25 -28 -40 -12 -28 -32 -32 -40 -8 -2 7 5 15 16
18 11 2 22 13 25 24 3 10 13 19 24 19 16 -1 16 -2 3 -13z m-85 -57 c-3 -5 -15
-10 -26 -10 -11 0 -17 5 -14 10 3 6 15 10 26 10 11 0 17 -4 14 -10z m25 -20
c0 -5 -7 -10 -15 -10 -8 0 -15 5 -15 10 0 6 7 10 15 10 8 0 15 -4 15 -10z
m-3879 -131 c-5 -13 -10 -19 -10 -12 -1 15 10 45 15 40 3 -2 0 -15 -5 -28z
m3809 1 c0 -5 -5 -10 -11 -10 -5 0 -7 5 -4 10 3 6 8 10 11 10 2 0 4 -4 4 -10z
m-4211 -45 c2 -3 -4 -6 -15 -7 -10 -1 6 -4 36 -7 32 -4 54 -11 53 -17 -1 -7 9
-9 25 -7 l27 5 -30 -26 c-18 -15 -24 -25 -15 -26 9 0 11 -3 4 -10 -15 -15
-104 -1 -104 16 0 8 7 14 15 14 29 0 15 18 -20 24 -25 5 -35 12 -35 26 0 10
-6 21 -12 23 -7 3 5 3 26 1 22 -2 42 -7 45 -9z m-1561 -118 c-2 -18 -10 -22
-38 -22 -29 0 -36 4 -38 23 -2 16 3 25 20 31 31 12 60 -4 56 -32z m1878 -72
c-11 -8 -25 -15 -30 -15 -6 1 0 7 14 15 32 19 40 18 16 0z m3844 -10 c0 -23
-27 -30 -58 -15 l-27 13 30 8 c48 11 55 10 55 -6z m-6023 -17 c-3 -8 -6 -5 -6
6 -1 11 2 17 5 13 3 -3 4 -12 1 -19z m5863 16 c0 -11 -34 -33 -50 -33 -10 -1
-6 6 10 19 26 20 40 25 40 14z m-5195 -133 c-3 -113 -79 -225 -189 -281 -65
-33 -74 -35 -165 -34 -81 0 -106 4 -162 28 -69 28 -149 88 -149 110 0 7 -9 21
-20 31 -11 10 -20 28 -20 41 0 12 -8 31 -17 40 -14 14 -15 17 -2 12 12 -5 15
3 15 48 -1 38 4 58 14 64 17 10 27 -13 29 -63 2 -56 109 -197 149 -197 5 0 15
-6 21 -13 6 -8 29 -20 51 -27 22 -7 40 -17 40 -23 0 -5 14 -7 30 -5 17 3 33 1
35 -3 7 -10 80 8 126 32 22 11 37 24 34 29 -3 5 3 17 15 27 11 10 20 22 20 29
0 6 9 19 20 29 11 10 19 23 18 29 -1 6 5 25 14 41 22 41 31 92 19 99 -10 7 -7
24 12 64 l11 24 27 -33 c24 -29 26 -41 24 -98z m5385 109 c0 -5 7 -10 15 -10
17 0 20 -16 4 -25 -6 -4 -19 2 -30 14 -23 24 -24 31 -4 31 8 0 15 -4 15 -10z
m-264 -12 c4 -7 4 -10 -1 -6 -4 4 -14 3 -22 -3 -10 -9 -13 -8 -13 5 0 19 26
22 36 4z m-329 -40 c-3 -8 -6 -5 -6 6 -1 11 2 17 5 13 3 -3 4 -12 1 -19z m3
-39 c0 -11 -4 -18 -10 -14 -5 3 -7 12 -3 20 7 21 13 19 13 -6z m480 -9 c0 -5
-4 -10 -10 -10 -5 0 -10 5 -10 10 0 6 5 10 10 10 6 0 10 -4 10 -10z m-290 -67
c0 -7 -7 -13 -15 -13 -8 0 -15 -4 -15 -10 0 -5 18 -10 40 -10 40 0 55 15 23
23 -11 3 -7 5 10 6 20 1 27 -4 27 -18 0 -24 -19 -30 -86 -29 -28 0 -71 -3 -95
-7 -34 -5 -41 -4 -32 5 6 7 32 15 58 18 64 7 37 22 -40 22 -37 0 -68 6 -80 15
-18 14 -18 16 -3 32 13 12 20 14 30 5 8 -7 19 -7 28 -2 19 12 30 3 31 -23 0
-12 3 -16 6 -9 2 6 10 12 17 12 20 0 66 24 66 35 1 14 29 -37 30 -52z m145 47
c3 -5 19 -10 36 -10 24 0 29 -4 29 -25 0 -22 -3 -24 -19 -16 -10 6 -34 8 -53
5 -27 -5 -36 -2 -42 11 -11 31 32 62 49 35z m-347 -67 c2 -8 -5 -13 -17 -13
-12 0 -21 6 -21 16 0 18 31 15 38 -3z m17 -63 c3 -5 1 -10 -4 -10 -6 0 -11 5
-11 10 0 6 2 10 4 10 3 0 8 -4 11 -10z m183 3 c-18 -3 -28 -11 -28 -21 -1 -16
-2 -16 -14 1 -7 9 -19 17 -26 17 -7 0 -19 -8 -26 -17 -12 -17 -13 -16 -14 5 0
21 4 22 68 21 37 -1 55 -4 40 -6z m-281 -34 c-14 -8 -22 -8 -30 0 -8 8 -3 11
19 11 25 -1 27 -2 11 -11z m93 -49 c0 -17 -7 -20 -51 -20 -28 0 -60 6 -72 13
-23 12 -15 14 106 25 11 1 17 -5 17 -18z m145 -10 c-3 -5 -12 -10 -20 -10 -8
0 -17 5 -20 10 -4 6 5 10 20 10 15 0 24 -4 20 -10z m40 0 c-3 -5 -10 -10 -16
-10 -5 0 -9 5 -9 10 0 6 7 10 16 10 8 0 12 -4 9 -10z m52 -42 c-2 -13 -4 -5
-4 17 -1 22 1 32 4 23 2 -10 2 -28 0 -40z m-417 32 c0 -5 -9 -10 -20 -10 -11
0 -20 5 -20 10 0 6 9 10 20 10 11 0 20 -4 20 -10z m715 0 c3 -5 -1 -10 -10
-10 -9 0 -13 5 -10 10 3 6 8 10 10 10 2 0 7 -4 10 -10z m-905 -24 c0 -2 -7 -6
-15 -10 -8 -3 -15 -1 -15 4 0 6 7 10 15 10 8 0 15 -2 15 -4z m555 -26 c4 -6
-7 -10 -25 -10 -18 0 -29 4 -25 10 3 6 15 10 25 10 10 0 22 -4 25 -10z m255
-10 c0 -11 -4 -20 -9 -20 -11 0 -22 26 -14 34 12 12 23 5 23 -14z m117 4 c-3
-3 -12 -4 -19 -1 -8 3 -5 6 6 6 11 1 17 -2 13 -5z m-249 -12 c9 -5 27 -14 39
-20 13 -7 30 -12 38 -12 8 0 15 -5 15 -11 0 -7 -13 -8 -38 -4 -29 5 -42 2 -52
-9 -16 -20 -44 -20 -60 -1 -7 8 -20 14 -29 14 -13 -1 -13 -2 2 -6 26 -7 21
-22 -10 -29 -16 -4 -36 -14 -47 -23 -18 -15 -18 -15 -11 8 4 14 2 33 -6 48
-17 32 0 44 58 41 23 -1 45 1 49 5 10 9 31 9 52 -1z m-5638 -12 c0 -5 -5 -10
-11 -10 -5 0 -7 5 -4 10 3 6 8 10 11 10 2 0 4 -4 4 -10z m5793 -44 c7 -17 -23
-46 -46 -46 -9 0 -17 7 -17 15 0 8 9 15 20 15 11 0 20 7 20 15 0 19 16 20 23
1z m-448 -6 c3 -5 1 -10 -4 -10 -6 0 -11 5 -11 10 0 6 2 10 4 10 3 0 8 -4 11
-10z m332 -6 c-3 -3 -12 -4 -19 -1 -8 3 -5 6 6 6 11 1 17 -2 13 -5z m-407 -8
c0 -3 -4 -8 -10 -11 -5 -3 -10 -1 -10 4 0 6 5 11 10 11 6 0 10 -2 10 -4z m-34
-21 c18 -14 17 -14 -13 -15 -23 0 -33 5 -33 15 0 19 21 19 46 0z m-387 1 c-10
-9 -79 -14 -79 -5 0 5 19 9 42 9 23 0 39 -2 37 -4z m526 -16 c3 -5 1 -10 -4
-10 -6 0 -11 5 -11 10 0 6 2 10 4 10 3 0 8 -4 11 -10z m515 0 c0 -5 -18 -10
-40 -10 -22 0 -40 5 -40 10 0 6 18 10 40 10 22 0 40 -4 40 -10z m-73 -47 c2
-6 -7 -8 -23 -5 -19 3 -22 7 -12 13 15 10 30 7 35 -8z m-510 1 c-3 -3 -12 -4
-19 -1 -8 3 -5 6 6 6 11 1 17 -2 13 -5z m573 -44 c0 -5 -4 -10 -10 -10 -5 0
-10 5 -10 10 0 6 5 10 10 10 6 0 10 -4 10 -10z m-73 -6 c-3 -3 -12 -4 -19 -1
-8 3 -5 6 6 6 11 1 17 -2 13 -5z m-370 -30 c-3 -3 -12 -4 -19 -1 -8 3 -5 6 6
6 11 1 17 -2 13 -5z m-72 -65 c7 -7 -2 -9 -29 -7 -23 2 -41 9 -44 17 -4 11 3
13 29 7 18 -3 38 -11 44 -17z m80 -9 c8 -13 -20 -24 -42 -16 -15 6 -15 8 -3
16 20 13 37 12 45 0z m510 -30 c-3 -5 -13 -10 -21 -10 -8 0 -14 5 -14 10 0 6
9 10 21 10 11 0 17 -4 14 -10z m50 -40 c3 -5 -3 -10 -15 -10 -12 0 -18 5 -15
10 3 6 10 10 15 10 5 0 12 -4 15 -10z m-225 -140 c0 -5 -7 -10 -15 -10 -8 0
-15 5 -15 10 0 6 7 10 15 10 8 0 15 -4 15 -10z m-245 -340 c3 -5 1 -10 -4 -10
-6 0 -11 5 -11 10 0 6 2 10 4 10 3 0 8 -4 11 -10z"/>
<path d="M6268 4683 c7 -3 16 -2 19 1 4 3 -2 6 -13 5 -11 0 -14 -3 -6 -6z"/>
<path d="M993 10770 c26 -16 52 -30 57 -30 6 0 10 -4 10 -8 0 -5 18 -17 40
-28 22 -10 40 -26 41 -34 0 -10 3 -8 9 5 8 18 9 18 10 -5 1 -14 4 -19 7 -12 9
24 -7 64 -23 58 -10 -4 -13 -2 -8 6 5 8 2 9 -9 5 -10 -3 -17 -2 -17 3 0 5 -13
23 -30 40 -25 26 -37 30 -82 30 l-52 0 47 -30z"/>
<path d="M9405 10788 c-11 -7 -27 -12 -35 -13 -28 -3 -85 -16 -105 -25 -38
-16 -110 -32 -155 -33 -25 -1 -64 -12 -87 -25 -24 -12 -74 -29 -113 -37 -38
-8 -78 -19 -87 -24 -10 -6 -54 -19 -98 -30 -44 -12 -120 -32 -170 -45 -49 -14
-146 -41 -215 -59 -69 -19 -176 -48 -238 -66 -62 -17 -119 -31 -127 -31 -9 0
-23 -4 -33 -9 -19 -11 -103 -37 -142 -45 -14 -3 -50 -12 -80 -21 -30 -8 -70
-18 -87 -21 -18 -4 -37 -12 -43 -19 -14 -17 34 -26 81 -16 32 7 201 5 314 -4
109 -8 234 -36 303 -66 23 -10 47 -19 52 -19 13 0 183 -81 190 -90 3 -3 20
-12 38 -19 17 -8 32 -17 32 -22 0 -5 23 -11 51 -15 37 -5 47 -9 36 -16 -9 -5
-26 -4 -42 4 -33 15 -52 0 -36 -31 10 -18 18 -20 69 -15 49 5 60 3 76 -15 12
-13 31 -21 53 -21 22 0 33 -5 33 -15 0 -8 9 -19 20 -25 14 -7 20 -7 20 0 0 14
30 13 35 -2 6 -15 341 -19 363 -5 7 5 18 4 26 -2 8 -7 31 -7 64 -2 29 4 63 6
77 4 13 -3 38 2 56 11 18 9 39 16 47 16 8 0 20 8 27 17 10 14 17 15 36 7 19
-8 33 -7 64 7 22 10 50 19 63 19 12 0 22 4 22 8 0 4 16 6 35 4 22 -3 35 0 35
7 0 7 11 9 26 7 14 -3 46 2 71 10 34 12 48 13 59 3 8 -6 14 -7 14 -2 0 6 32
18 71 28 76 18 102 21 190 24 41 1 59 5 63 17 4 10 -3 18 -24 26 -30 10 -41
28 -17 28 10 0 53 -7 222 -36 17 -3 48 -10 70 -15 66 -17 148 -37 188 -47 l37
-10 0 389 0 389 -687 0 c-502 -1 -693 -4 -708 -12z m768 -645 c56 -5 67 -9 67
-24 0 -11 -5 -19 -11 -19 -5 0 -7 5 -3 11 5 8 -6 10 -35 7 -22 -2 -43 1 -45 7
-2 6 -8 5 -17 -2 -16 -16 -61 -17 -75 -3 -8 8 -19 8 -38 0 -15 -5 -83 -10
-151 -10 -114 0 -124 -1 -119 -17 5 -16 4 -16 -8 -2 -21 26 -56 30 -63 8 -7
-20 -35 -27 -35 -9 0 6 -9 10 -19 10 -11 0 -21 5 -23 12 -3 8 -12 9 -36 0 -17
-6 -45 -9 -62 -7 -21 3 -33 -1 -37 -10 -3 -10 -20 -15 -52 -15 -26 0 -52 -5
-59 -12 -7 -7 -12 -8 -12 -4 0 5 -7 2 -16 -5 -9 -7 -28 -15 -43 -17 -14 -2
-33 -10 -42 -18 -18 -16 -39 -19 -39 -4 0 6 -4 10 -10 10 -5 0 -7 -7 -4 -15 5
-11 -1 -15 -24 -15 -17 0 -42 -4 -57 -10 -20 -8 -27 -7 -31 5 -4 9 -19 15 -35
15 -22 0 -29 5 -29 20 0 19 20 26 90 34 14 1 31 6 38 10 7 4 33 8 57 8 25 0
45 4 45 10 0 6 7 7 16 4 9 -3 41 1 71 10 31 9 78 17 107 19 28 1 58 5 66 8 8
4 35 8 60 10 83 7 544 7 613 0z m-688 -53 c3 -5 1 -10 -4 -10 -6 0 -11 5 -11
10 0 6 2 10 4 10 3 0 8 -4 11 -10z m65 -6 c0 -2 -9 -4 -20 -4 -11 0 -20 4 -20
9 0 5 9 7 20 4 11 -3 20 -7 20 -9z m160 12 c0 -3 -4 -8 -10 -11 -5 -3 -10 -1
-10 4 0 6 5 11 10 11 6 0 10 -2 10 -4z m-750 -66 c0 -5 -5 -10 -11 -10 -5 0
-7 5 -4 10 3 6 8 10 11 10 2 0 4 -4 4 -10z m400 -12 c0 -14 -8 -18 -40 -18
-22 0 -40 5 -40 10 0 6 9 10 19 10 11 0 22 4 25 8 10 16 36 9 36 -10z m-575
-8 c4 -6 -5 -10 -20 -10 -15 0 -24 4 -20 10 3 6 12 10 20 10 8 0 17 -4 20 -10z
m58 3 c-7 -2 -21 -2 -30 0 -10 3 -4 5 12 5 17 0 24 -2 18 -5z"/>
<path d="M9378 10093 c6 -2 18 -2 25 0 6 3 1 5 -13 5 -14 0 -19 -2 -12 -5z"/>
<path d="M1180 10657 c0 -19 26 -40 42 -34 8 3 6 6 -5 6 -10 1 -16 5 -13 10 3
5 -1 14 -9 21 -12 10 -15 10 -15 -3z"/>
<path d="M1060 10438 c0 -29 13 -58 25 -58 19 0 27 30 10 36 -8 4 -15 12 -15
20 0 8 -4 14 -10 14 -5 0 -10 -6 -10 -12z"/>
<path d="M1166 10331 c15 -23 31 -41 35 -41 5 0 19 -10 31 -22 15 -15 23 -18
26 -9 4 12 -66 84 -101 103 -14 7 -12 0 9 -31z"/>
<path d="M7948 10243 c7 -3 16 -2 19 1 4 3 -2 6 -13 5 -11 0 -14 -3 -6 -6z"/>
<path d="M8028 10203 c6 -2 18 -2 25 0 6 3 1 5 -13 5 -14 0 -19 -2 -12 -5z"/>
<path d="M1410 10120 c0 -5 4 -10 9 -10 5 0 11 -9 14 -20 3 -13 10 -18 21 -14
11 4 16 1 16 -10 0 -9 7 -16 15 -16 26 0 16 20 -20 41 -19 12 -35 25 -35 30 0
5 -4 9 -10 9 -5 0 -10 -4 -10 -10z"/>
<path d="M10353 10093 c9 -2 25 -2 35 0 9 3 1 5 -18 5 -19 0 -27 -2 -17 -5z"/>
<path d="M10330 10065 c0 -11 9 -14 35 -12 45 3 45 22 0 25 -26 2 -35 -1 -35
-13z"/>
<path d="M1510 10041 c0 -5 5 -13 10 -16 6 -3 10 -2 10 4 0 5 -4 13 -10 16 -5
3 -10 2 -10 -4z"/>
<path d="M8550 10009 c0 -5 5 -7 10 -4 6 3 10 8 10 11 0 2 -4 4 -10 4 -5 0
-10 -5 -10 -11z"/>
<path d="M10785 9700 c-4 -6 -15 -8 -26 -5 -10 4 -24 3 -30 -1 -16 -10 9 -24
44 -24 20 0 27 5 27 20 0 22 -5 25 -15 10z"/>
<path d="M9660 9670 c0 -5 5 -10 10 -10 6 0 10 5 10 10 0 6 -4 10 -10 10 -5 0
-10 -4 -10 -10z"/>
<path d="M10648 9653 c7 -3 16 -2 19 1 4 3 -2 6 -13 5 -11 0 -14 -3 -6 -6z"/>
<path d="M10770 9646 c0 -2 7 -6 15 -10 8 -3 15 -1 15 4 0 6 -7 10 -15 10 -8
0 -15 -2 -15 -4z"/>
<path d="M9361 9614 c0 -11 3 -14 6 -6 3 7 2 16 -1 19 -3 4 -6 -2 -5 -13z"/>
<path d="M9444 9605 c-9 -21 -2 -26 13 -10 8 9 9 16 3 20 -6 3 -13 -1 -16 -10z"/>
<path d="M9495 9610 c-3 -5 -1 -10 4 -10 6 0 11 5 11 10 0 6 -2 10 -4 10 -3 0
-8 -4 -11 -10z"/>
<path d="M10740 9510 c0 -5 7 -10 15 -10 8 0 15 5 15 10 0 6 -7 10 -15 10 -8
0 -15 -4 -15 -10z"/>
<path d="M4480 9246 c0 -9 5 -16 10 -16 6 0 10 4 10 9 0 6 -4 13 -10 16 -5 3
-10 -1 -10 -9z"/>
<path d="M10448 9189 c-10 -6 -18 -14 -18 -19 0 -14 37 -12 46 1 10 17 -9 29
-28 18z"/>
<path d="M3390 9031 c0 -4 -12 -21 -27 -37 -25 -27 -25 -29 -7 -33 10 -1 26
-10 36 -18 14 -13 17 -12 27 4 9 14 12 15 20 4 6 -10 10 -10 16 -1 4 6 -2 20
-14 31 -12 11 -21 29 -21 39 0 11 -7 20 -15 20 -8 0 -15 -4 -15 -9z"/>
<path d="M2980 8969 c0 -5 5 -7 10 -4 6 3 10 8 10 11 0 2 -4 4 -10 4 -5 0 -10
-5 -10 -11z"/>
<path d="M2598 8952 c-39 -18 -50 -46 -26 -70 8 -8 9 -12 1 -12 -6 0 -13 4
-15 9 -5 14 -78 -19 -78 -35 0 -8 8 -14 18 -14 9 0 27 -3 40 -6 16 -5 22 -2
22 10 0 9 6 13 14 10 8 -3 17 -1 21 5 3 6 15 11 26 11 16 0 19 7 19 55 0 30
-1 55 -2 54 -2 0 -20 -8 -40 -17z"/>
<path d="M2656 8832 c-8 -13 7 -26 44 -39 28 -10 32 -10 19 0 -8 7 -18 20 -22
30 -7 17 -32 23 -41 9z"/>
<path d="M10675 4890 c-9 -15 4 -30 26 -30 12 0 19 7 19 20 0 21 -33 29 -45
10z"/>
<path d="M10720 4732 c0 -34 10 -41 29 -19 8 11 6 18 -9 32 -20 18 -20 17 -20
-13z"/>
<path d="M10628 4713 c6 -2 12 -13 12 -24 0 -21 15 -26 22 -6 8 21 -3 37 -25
36 -12 0 -16 -3 -9 -6z"/>
<path d="M10477 4642 c1 -8 3 -16 3 -18 0 -2 9 -4 20 -4 17 0 18 -3 8 -25 -6
-14 -15 -25 -20 -25 -4 0 -8 -4 -8 -10 0 -5 18 -10 40 -10 33 0 40 3 40 20 0
17 7 20 40 20 41 0 57 21 25 34 -9 3 -12 12 -8 22 4 12 1 15 -13 12 -10 -2
-19 -9 -19 -16 0 -14 -23 -32 -42 -32 -7 0 -13 7 -13 15 0 9 -9 15 -24 15 -13
0 -26 3 -29 8 -2 4 -2 1 0 -6z"/>
<path d="M10538 4523 c7 -3 16 -2 19 1 4 3 -2 6 -13 5 -11 0 -14 -3 -6 -6z"/>
<path d="M10580 4469 c0 -5 5 -7 10 -4 6 3 10 8 10 11 0 2 -4 4 -10 4 -5 0
-10 -5 -10 -11z"/>
<path d="M10500 4410 c0 -5 7 -10 15 -10 8 0 15 5 15 10 0 6 -7 10 -15 10 -8
0 -15 -4 -15 -10z"/>
<path d="M10616 4402 c6 -4 14 -17 18 -29 7 -23 26 -32 26 -13 0 6 -4 10 -9
10 -5 0 -11 9 -14 20 -3 11 -11 20 -19 20 -9 0 -9 -3 -2 -8z"/>
<path d="M10560 4365 c0 -10 -14 -17 -40 -21 -43 -7 -49 -14 -26 -33 10 -8 16
-9 21 -1 10 16 21 12 33 -15 13 -27 32 -34 32 -10 0 7 6 18 14 22 12 7 12 13
1 41 -14 33 -35 43 -35 17z"/>
<path d="M10720 4330 c0 -5 5 -10 11 -10 5 0 7 5 4 10 -3 6 -8 10 -11 10 -2 0
-4 -4 -4 -10z"/>
<path d="M10585 4250 c-3 -5 1 -10 9 -10 9 0 16 5 16 10 0 6 -4 10 -9 10 -6 0
-13 -4 -16 -10z"/>
<path d="M10546 4051 c-4 -7 -5 -15 -2 -18 9 -9 19 4 14 18 -4 11 -6 11 -12 0z"/>
<path d="M10590 4015 c0 -8 5 -15 10 -15 6 0 10 7 10 15 0 8 -4 15 -10 15 -5
0 -10 -7 -10 -15z"/>
<path d="M10642 3880 c0 -14 2 -19 5 -12 2 6 2 18 0 25 -3 6 -5 1 -5 -13z"/>
<path d="M10695 3840 c-15 -17 -16 -20 -3 -20 9 0 19 7 22 16 10 25 1 27 -19
4z"/>
<path d="M10660 3774 c0 -11 -6 -14 -22 -9 -18 5 -20 4 -8 -4 8 -6 25 -11 37
-11 16 0 20 5 16 20 -6 24 -23 27 -23 4z"/>
<path d="M10720 3753 c0 -19 -6 -33 -17 -37 -27 -11 15 -35 60 -36 l37 0 -1
43 -2 42 -6 -35 c-5 -29 -10 -35 -31 -35 -22 0 -25 4 -26 37 -1 45 -14 64 -14
21z"/>
</g>
</svg>
